{
  "accessors": [
    {
      "bufferView": 2,
      "componentType": 5126,
      "count": 3216,
      "max": [
        8.8959016799926758,
        17.958934783935547,
        17.922544479370117
      ],
      "min": [
        -11.714615821838379,
        -30.655303955078125,
        -0.30155101418495178
      ],
      "type": "VEC3"
    },
    {
      "bufferView": 2,
      "byteOffset": 38592,
      "componentType": 5126,
      "count": 3216,
      "max": [
        0.99999910593032837,
        1,
        1
      ],
      "min": [
        -0.99997901916503906,
        -1,
        -0.99890202283859253
      ],
      "type": "VEC3"
    },
    {
      "bufferView": 3,
      "componentType": 5126,
      "count": 3216,
      "max": [
        0.99984055757522583,
        0.99996310472488403,
        0.99999982118606567,
        1
      ],
      "min": [
        -0.99999833106994629,
        -0.99999994039535522,
        -0.99999982118606567,
        -1
      ],
      "type": "VEC4"
    },
    {
      "bufferView": 1,
      "componentType": 5126,
      "count": 3216,
      "max": [
        0.99471801519393921,
        0.99558597803115845
      ],
      "min": [
        0.0036239998880773783,
        0.0057379999198019505
      ],
      "type": "VEC2"
    },
    {
      "bufferView": 0,
      "componentType": 5125,
      "count": 12147,
      "max": [
        3215
      ],
      "min": [
        0
      ],
      "type": "SCALAR"
    },
    {
      "bufferView": 2,
      "byteOffset": 77184,
      "componentType": 5126,
      "count": 12537,
      "max": [
        11.667268753051758,
        27.899555206298828,
        18.284660339355469
      ],
      "min": [
        -9.5608739852905273,
        -32.353084564208984,
        1.5019299983978271
      ],
      "type": "VEC3"
    },
    {
      "bufferView": 2,
      "byteOffset": 227628,
      "componentType": 5126,
      "count": 12537,
      "max": [
        0.99975913763046265,
        0.99997562170028687,
        0.99996525049209595
      ],
      "min": [
        -0.999797523021698,
        -0.99991589784622192,
        -0.99992513656616211
      ],
      "type": "VEC3"
    },
    {
      "bufferView": 3,
      "byteOffset": 51456,
      "componentType": 5126,
      "count": 12537,
      "max": [
        0.99991214275360107,
        0.99991846084594727,
        0.99999988079071045,
        1
      ],
      "min": [
        -0.99998009204864502,
        -0.99999821186065674,
        -0.99996882677078247,
        -1
      ],
      "type": "VEC4"
    },
    {
      "bufferView": 1,
      "byteOffset": 25728,
      "componentType": 5126,
      "count": 12537,
      "max": [
        0.99627000093460083,
        0.99363100528717041
      ],
      "min": [
        0.0080310003831982613,
        0.0071069998666644096
      ],
      "type": "VEC2"
    },
    {
      "bufferView": 0,
      "byteOffset": 48588,
      "componentType": 5125,
      "count": 43896,
      "max": [
        12536
      ],
      "min": [
        0
      ],
      "type": "SCALAR"
    },
    {
      "bufferView": 2,
      "byteOffset": 378072,
      "componentType": 5126,
      "count": 2779,
      "max": [
        13.744370460510254,
        36.886665344238281,
        21.660467147827148
      ],
      "min": [
        -12.208108901977539,
        -35.397872924804688,
        -0.13781100511550903
      ],
      "type": "VEC3"
    },
    {
      "bufferView": 2,
      "byteOffset": 411420,
      "componentType": 5126,
      "count": 2779,
      "max": [
        0.99881446361541748,
        0.99949640035629272,
        0.99999964237213135
      ],
      "min": [
        -0.99782073497772217,
        -0.99722778797149658,
        -0.99719524383544922
      ],
      "type": "VEC3"
    },
    {
      "bufferView": 3,
      "byteOffset": 252048,
      "componentType": 5126,
      "count": 2779,
      "max": [
        0.99921989440917969,
        0.99971717596054077,
        0.99680560827255249,
        1
      ],
      "min": [
        -0.9999992847442627,
        -0.99997073411941528,
        -0.99937814474105835,
        -1
      ],
      "type": "VEC4"
    },
    {
      "bufferView": 1,
      "byteOffset": 126024,
      "componentType": 5126,
      "count": 2779,
      "max": [
        0.99605798721313477,
        0.98951399326324463
      ],
      "min": [
        0.0074100000783801079,
        0.0050010001286864281
      ],
      "type": "VEC2"
    },
    {
      "bufferView": 0,
      "byteOffset": 224172,
      "componentType": 5125,
      "count": 13968,
      "max": [
        2778
      ],
      "min": [
        0
      ],
      "type": "SCALAR"
    },
    {
      "bufferView": 2,
      "byteOffset": 444768,
      "componentType": 5126,
      "count": 1314,
      "max": [
        5.014854907989502,
        5.0248532295227051,
        12.184663772583008
      ],
      "min": [
        -2.1572930812835693,
        -27.734086990356445,
        8.6888046264648438
      ],
      "type": "VEC3"
    },
    {
      "bufferView": 2,
      "byteOffset": 460536,
      "componentType": 5126,
      "count": 1314,
      "max": [
        0.98731625080108643,
        0.97655022144317627,
        0.98087888956069946
      ],
      "min": [
        -0.98731637001037598,
        -0.97655045986175537,
        -0.99592876434326172
      ],
      "type": "VEC3"
    },
    {
      "bufferView": 3,
      "byteOffset": 296512,
      "componentType": 5126,
      "count": 1314,
      "max": [
        1,
        0.98807817697525024,
        0.13301782310009003,
        1
      ],
      "min": [
        -1,
        -0.98807549476623535,
        -0.7684670090675354,
        1
      ],
      "type": "VEC4"
    },
    {
      "bufferView": 1,
      "byteOffset": 148256,
      "componentType": 5126,
      "count": 1314,
      "max": [
        0.96681702136993408,
        1.2192269563674927
      ],
      "min": [
        0.25036400556564331,
        0.5946279764175415
      ],
      "type": "VEC2"
    },
    {
      "bufferView": 0,
      "byteOffset": 280044,
      "componentType": 5125,
      "count": 1782,
      "max": [
        1313
      ],
      "min": [
        0
      ],
      "type": "SCALAR"
    }
  ],
  "asset": {
    "generator": "Sketchfab (OSG glTF plugin)",
    "version": "2.0"
  },
  "bufferViews": [
    {
      "buffer": 0,
      "byteLength": 287172,
      "byteOffset": 0,
      "name": "floatBufferViews",
      "target": 34963
    },
    {
      "buffer": 0,
      "byteLength": 158768,
      "byteOffset": 287172,
      "byteStride": 8,
      "name": "floatBufferViews",
      "target": 34962
    },
    {
      "buffer": 0,
      "byteLength": 476304,
      "byteOffset": 445940,
      "byteStride": 12,
      "name": "floatBufferViews",
      "target": 34962
    },
    {
      "buffer": 0,
      "byteLength": 317536,
      "byteOffset": 922244,
      "byteStride": 16,
      "name": "floatBufferViews",
      "target": 34962
    }
  ],
  "buffers": [
    {
      "byteLength": 1239780,
      "uri": "scene.bin"
    }
  ],
  "extensionsRequired": [
    "KHR_materials_pbrSpecularGlossiness"
  ],
  "extensionsUsed": [
    "KHR_materials_pbrSpecularGlossiness"
  ],
  "images": [
    {
      "uri": "textures/map_2_island1_diffuse.png"
    },
    {
      "uri": "textures/map_2_terrain1_specularGlossiness.png"
    },
    {
      "uri": "textures/map_2_terrain1_diffuse.png"
    },
    {
      "uri": "textures/map_4%3Alambert5SG_diffuse.png"
    },
    {
      "uri": "textures/map_4%3Alambert5SG_emissive.png"
    },
    {
      "uri": "textures/map_2_object1_diffuse.png"
    }
  ],
  "materials": [
    {
      "alphaCutoff": 0.01,
      "alphaMode": "MASK",
      "doubleSided": true,
      "extensions": {
        "KHR_materials_pbrSpecularGlossiness": {
          "diffuseFactor": [
            1,
            1,
            1,
            1
          ],
          "diffuseTexture": {
            "index": 0,
            "texCoord": 0
          },
          "glossinessFactor": 0,
          "specularFactor": [
            0,
            0,
            0
          ]
        }
      },
      "name": "map_2_island1"
    },
    {
      "alphaCutoff": 0.01,
      "alphaMode": "MASK",
      "doubleSided": true,
      "extensions": {
        "KHR_materials_pbrSpecularGlossiness": {
          "diffuseFactor": [
            1,
            1,
            1,
            1
          ],
          "diffuseTexture": {
            "index": 5,
            "texCoord": 0
          },
          "glossinessFactor": 0,
          "specularFactor": [
            0,
            0,
            0
          ]
        }
      },
      "name": "map_2_object1"
    },
    {
      "doubleSided": true,
      "extensions": {
        "KHR_materials_pbrSpecularGlossiness": {
          "diffuseFactor": [
            1,
            1,
            1,
            1
          ],
          "diffuseTexture": {
            "index": 2,
            "texCoord": 0
          },
          "glossinessFactor": 0,
          "specularFactor": [
            0,
            0,
            0
          ],
          "specularGlossinessTexture": {
            "index": 1,
            "texCoord": 0
          }
        }
      },
      "name": "map_2_terrain1"
    },
    {
      "alphaCutoff": 0.5,
      "alphaMode": "BLEND",
      "doubleSided": true,
      "emissiveFactor": [
        1,
        1,
        1
      ],
      "emissiveTexture": {
        "index": 4,
        "texCoord": 0
      },
      "extensions": {
        "KHR_materials_pbrSpecularGlossiness": {
          "diffuseFactor": [
            1,
            1,
            1,
            1
          ],
          "diffuseTexture": {
            "index": 3,
            "texCoord": 0
          },
          "glossinessFactor": 0,
          "specularFactor": [
            0,
            0,
            0
          ]
        }
      },
      "name": "map_4:lambert5SG",
      "occlusionFactor": 1
    }
  ],
  "meshes": [
    {
      "primitives": [
        {
          "attributes": {
            "NORMAL": 1,
            "POSITION": 0,
            "TANGENT": 2,
            "TEXCOORD_0": 3
          },
          "indices": 4,
          "material": 0,
          "mode": 4
        }
      ]
    },
    {
      "primitives": [
        {
          "attributes": {
            "NORMAL": 6,
            "POSITION": 5,
            "TANGENT": 7,
            "TEXCOORD_0": 8
          },
          "indices": 9,
          "material": 1,
          "mode": 4
        }
      ]
    },
    {
      "primitives": [
        {
          "attributes": {
            "NORMAL": 11,
            "POSITION": 10,
            "TANGENT": 12,
            "TEXCOORD_0": 13
          },
          "indices": 14,
          "material": 2,
          "mode": 4
        }
      ]
    },
    {
      "primitives": [
        {
          "attributes": {
            "NORMAL": 16,
            "POSITION": 15,
            "TANGENT": 17,
            "TEXCOORD_0": 18
          },
          "indices": 19,
          "material": 3,
          "mode": 4
        }
      ]
    }
  ],
  "nodes": [
    {
      "children": [
        1
      ],
      "name": "RootNode (gltf orientation matrix)",
      "rotation": [
        -0.70710678118654746,
        -0,
        -0,
        0.70710678118654757
      ]
    },
    {
      "children": [
        2
      ],
      "name": "RootNode (model correction matrix)"
    },
    {
      "children": [
        7
      ],
      "name": "sands location.obj.cleaner"
    },
    {
      "mesh": 0,
      "name": ""
    },
    {
      "mesh": 1,
      "name": ""
    },
    {
      "mesh": 2,
      "name": ""
    },
    {
      "mesh": 3,
      "name": ""
    },
    {
      "children": [
        3,
        4,
        5,
        6
      ],
      "name": "Geode"
    }
  ],
  "samplers": [
    {
      "magFilter": 9729,
      "minFilter": 9987,
      "wrapS": 10497,
      "wrapT": 10497
    },
    {
      "magFilter": 9729,
      "minFilter": 9729,
      "wrapS": 10497,
      "wrapT": 10497
    }
  ],
  "scene": 0,
  "scenes": [
    {
      "name": "OSG_Scene",
      "nodes": [
        0
      ]
    }
  ],
  "textures": [
    {
      "sampler": 0,
      "source": 0
    },
    {
      "sampler": 0,
      "source": 1
    },
    {
      "sampler": 0,
      "source": 2
    },
    {
      "sampler": 0,
      "source": 3
    },
    {
      "sampler": 0,
      "source": 4
    },
    {
      "sampler": 1,
      "source": 5
    }
  ]
}

